<svg xmlns="http://www.w3.org/2000/svg" version="1.1" xmlns:xlink="http://www.w3.org/1999/xlink" width="1000" height="1000"><style>
    #light-icon {
      display: inline;
    }
    #dark-icon {
      display: none;
    }

    @media (prefers-color-scheme: dark) {
      #light-icon {
        display: none;
      }
      #dark-icon {
        display: inline;
      }
    }
  </style><g id="light-icon"><svg xmlns="http://www.w3.org/2000/svg" version="1.1" xmlns:xlink="http://www.w3.org/1999/xlink" width="1000" height="1000"><g><g transform="matrix(9.25925925925926,0,0,9.25925925925926,0,0)"><svg xmlns="http://www.w3.org/2000/svg" width="108" height="108" viewBox="0 0 108 108" fill="none"><circle cx="32" cy="22" r="10" fill="#9A1B1B"></circle><circle cx="76" cy="22" r="10" fill="#9A1B1B"></circle><circle cx="10" cy="44" r="10" fill="#9A1B1B"></circle><circle cx="32" cy="44" r="10" fill="#9A1B1B"></circle><circle cx="54" cy="44" r="10" fill="#9A1B1B"></circle><circle cx="76" cy="44" r="10" fill="#9A1B1B"></circle><circle cx="98" cy="44" r="10" fill="#9A1B1B"></circle><circle cx="32" cy="66" r="10" fill="#9A1B1B"></circle><circle cx="54" cy="66" r="10" fill="#9A1B1B"></circle><circle cx="76" cy="66" r="10" fill="#9A1B1B"></circle><circle cx="54" cy="88" r="10" fill="#9A1B1B"></circle></svg></g></g></svg></g><g id="dark-icon"><svg xmlns="http://www.w3.org/2000/svg" version="1.1" xmlns:xlink="http://www.w3.org/1999/xlink" width="1000" height="1000"><g><g transform="matrix(9.25925925925926,0,0,9.25925925925926,0,0)"><svg xmlns="http://www.w3.org/2000/svg" width="108" height="108" viewBox="0 0 108 108" fill="none"><circle cx="32" cy="22" r="10" fill="#F1EEE6"></circle><circle cx="76" cy="22" r="10" fill="#F1EEE6"></circle><circle cx="10" cy="44" r="10" fill="#F1EEE6"></circle><circle cx="32" cy="44" r="10" fill="#F1EEE6"></circle><circle cx="54" cy="44" r="10" fill="#F1EEE6"></circle><circle cx="76" cy="44" r="10" fill="#F1EEE6"></circle><circle cx="98" cy="44" r="10" fill="#F1EEE6"></circle><circle cx="32" cy="66" r="10" fill="#F1EEE6"></circle><circle cx="54" cy="66" r="10" fill="#F1EEE6"></circle><circle cx="76" cy="66" r="10" fill="#F1EEE6"></circle><circle cx="54" cy="88" r="10" fill="#F1EEE6"></circle></svg></g></g></svg></g></svg>